<svg width="103" height="101" viewBox="0 0 103 101" fill="none" xmlns="http://www.w3.org/2000/svg">
<path opacity="0.95" d="M64.76 97.3C64.6671 97.1753 64.5502 97.0705 64.4163 96.9915C64.2824 96.9125 64.134 96.861 63.98 96.84C58.1578 95.6045 52.5617 93.476 47.39 90.53C36.77 84.35 29.98 75.04 29.74 64.35C29.6633 60.2883 30.5042 56.2616 32.2 52.57C33.27 50.17 39.07 41.52 40.03 40C44.03 33.8 42.71 34.19 37.15 26.47L29.1 14.62L23.75 6.73001V6.78C20.6534 8.88764 17.7216 11.2277 14.98 13.78C9.38982 19.3913 5.17634 26.222 2.67032 33.7357C0.16429 41.2495 -0.566064 49.2418 0.536583 57.0854C1.63923 64.9289 4.54487 72.4101 9.0254 78.9417C13.5059 85.4733 19.4394 90.8775 26.36 94.73C8.56999 81.73 0.449995 62.13 7.25999 42.37C9.12556 37.0749 11.8485 32.1222 15.32 27.71L21.18 36.33C21.5219 36.8261 21.694 37.4196 21.6705 38.0216C21.6471 38.6237 21.4294 39.202 21.05 39.67C18.2519 43.102 16.0696 46.9929 14.6 51.17C7.09999 72.91 27.35 95.43 48.72 99.09C52.82 99.8 60.29 100.58 64.15 99.58C64.3815 99.5187 64.5928 99.3974 64.7624 99.2282C64.9319 99.0591 65.0539 98.8482 65.1158 98.6168C65.1777 98.3854 65.1774 98.1418 65.1149 97.9106C65.0524 97.6793 64.93 97.4687 64.76 97.3V97.3Z" fill="url(#paint0_linear)"/>
<path opacity="0.95" d="M37.78 2.71C37.8729 2.83466 37.9898 2.93954 38.1237 3.01852C38.2576 3.0975 38.4059 3.14899 38.56 3.16999C44.3817 4.4074 49.9775 6.53579 55.15 9.48001C65.77 15.66 72.56 24.97 72.8 35.66C72.8923 39.7179 72.0686 43.7444 70.39 47.44C69.32 49.84 63.52 58.49 62.55 60.01C58.61 66.21 59.88 65.82 65.44 73.54L73.49 85.4L78.84 93.28V93.23C81.9365 91.1224 84.8683 88.7823 87.61 86.23C93.2002 80.6187 97.4136 73.7881 99.9197 66.2743C102.426 58.7605 103.156 50.7682 102.053 42.9246C100.951 35.0811 98.0451 27.5999 93.5646 21.0683C89.0841 14.5367 83.1506 9.13253 76.23 5.28C94.02 18.28 102.14 37.88 95.33 57.64C93.4644 62.9351 90.7415 67.8878 87.27 72.3L81.39 63.72C81.0481 63.2239 80.876 62.6304 80.8995 62.0284C80.9229 61.4263 81.1406 60.848 81.52 60.38C84.3201 56.9494 86.5026 53.0581 87.97 48.88C95.47 27.14 75.22 4.63 53.85 0.960003C49.75 0.250003 42.28 -0.530002 38.42 0.469998C38.1937 0.531181 37.9871 0.64981 37.8202 0.814373C37.6533 0.978937 37.5317 1.18386 37.4673 1.40924C37.4029 1.63462 37.3979 1.87281 37.4526 2.10072C37.5074 2.32863 37.6202 2.53851 37.78 2.71Z" fill="url(#paint1_linear)"/>
<defs>
<linearGradient id="paint0_linear" x1="19.17" y1="90.57" x2="56.62" y2="25.71" gradientUnits="userSpaceOnUse">
<stop stop-color="#174E5B"/>
<stop offset="0.07" stop-color="#195A6C"/>
<stop offset="0.21" stop-color="#1E779A"/>
<stop offset="0.4" stop-color="#27A7E3"/>
<stop offset="0.47" stop-color="#2ABAFF"/>
<stop offset="0.7" stop-color="#1DDAF0"/>
<stop offset="1" stop-color="#0EFFE0"/>
</linearGradient>
<linearGradient id="paint1_linear" x1="31450.2" y1="-230354" x2="36775.1" y2="-223913" gradientUnits="userSpaceOnUse">
<stop stop-color="#174E5B"/>
<stop offset="0.07" stop-color="#195A6C"/>
<stop offset="0.21" stop-color="#1E779A"/>
<stop offset="0.4" stop-color="#27A7E3"/>
<stop offset="0.47" stop-color="#2ABAFF"/>
<stop offset="0.7" stop-color="#1DDAF0"/>
<stop offset="1" stop-color="#0EFFE0"/>
</linearGradient>
</defs>
</svg>
