<svg width="349" height="101" viewBox="0 0 349 101" fill="none" xmlns="http://www.w3.org/2000/svg">
<g clip-path="url(#clip0)">
<path opacity="0.95" d="M64.76 97.3C64.6671 97.1753 64.5502 97.0705 64.4163 96.9915C64.2824 96.9125 64.134 96.861 63.98 96.84C58.1578 95.6045 52.5617 93.476 47.39 90.53C36.77 84.35 29.98 75.04 29.74 64.35C29.6633 60.2883 30.5042 56.2616 32.2 52.57C33.27 50.17 39.07 41.52 40.03 40C44.03 33.8 42.71 34.19 37.15 26.47L29.1 14.62L23.75 6.73001V6.78C20.6534 8.88764 17.7216 11.2277 14.98 13.78C9.38982 19.3913 5.17634 26.222 2.67032 33.7357C0.16429 41.2495 -0.566064 49.2418 0.536583 57.0854C1.63923 64.9289 4.54487 72.4101 9.0254 78.9417C13.5059 85.4733 19.4394 90.8775 26.36 94.73C8.56999 81.73 0.449995 62.13 7.25999 42.37C9.12556 37.0749 11.8485 32.1222 15.32 27.71L21.18 36.33C21.5219 36.8261 21.694 37.4196 21.6705 38.0216C21.6471 38.6237 21.4294 39.202 21.05 39.67C18.2519 43.102 16.0696 46.9929 14.6 51.17C7.09999 72.91 27.35 95.43 48.72 99.09C52.82 99.8 60.29 100.58 64.15 99.58C64.3815 99.5187 64.5928 99.3974 64.7624 99.2282C64.9319 99.0591 65.0539 98.8482 65.1158 98.6168C65.1777 98.3854 65.1774 98.1418 65.1149 97.9106C65.0524 97.6793 64.93 97.4687 64.76 97.3V97.3Z" fill="url(#paint0_linear)"/>
<path opacity="0.95" d="M37.78 2.71C37.8729 2.83466 37.9898 2.93954 38.1237 3.01852C38.2576 3.0975 38.4059 3.14899 38.56 3.16999C44.3817 4.4074 49.9775 6.53579 55.15 9.48001C65.77 15.66 72.56 24.97 72.8 35.66C72.8923 39.7179 72.0686 43.7444 70.39 47.44C69.32 49.84 63.52 58.49 62.55 60.01C58.61 66.21 59.88 65.82 65.44 73.54L73.49 85.4L78.84 93.28V93.23C81.9365 91.1224 84.8683 88.7823 87.61 86.23C93.2002 80.6187 97.4136 73.7881 99.9197 66.2743C102.426 58.7605 103.156 50.7682 102.053 42.9246C100.951 35.0811 98.0451 27.5999 93.5646 21.0683C89.0841 14.5367 83.1506 9.13253 76.23 5.28C94.02 18.28 102.14 37.88 95.33 57.64C93.4644 62.9351 90.7415 67.8878 87.27 72.3L81.39 63.72C81.0481 63.2239 80.876 62.6304 80.8995 62.0284C80.9229 61.4263 81.1406 60.848 81.52 60.38C84.3201 56.9494 86.5026 53.0581 87.97 48.88C95.47 27.14 75.22 4.63 53.85 0.960003C49.75 0.250003 42.28 -0.530002 38.42 0.469998C38.1937 0.531181 37.9871 0.64981 37.8202 0.814373C37.6533 0.978937 37.5317 1.18386 37.4673 1.40924C37.4029 1.63462 37.3979 1.87281 37.4526 2.10072C37.5074 2.32863 37.6202 2.53851 37.78 2.71Z" fill="url(#paint1_linear)"/>
<path d="M132.65 52.44H125.79V22.76H132.65V52.44Z" fill="#182033"/>
<path d="M142.39 52.44V22.76H148.39L164.47 41.88V22.76H171.32V52.44H165.32L149.21 33.22V52.44H142.39Z" fill="#182033"/>
<path d="M192.91 22.76V42.97C192.91 45.19 192.77 48.48 190.33 50.89C189.49 51.6687 188.499 52.2673 187.419 52.6491C186.339 53.0309 185.193 53.1877 184.05 53.11C182.407 53.2125 180.768 52.8412 179.33 52.04C178.275 51.3576 177.331 50.5179 176.53 49.55L180.8 44.75C181.082 45.3418 181.442 45.8933 181.87 46.39C182.088 46.6151 182.352 46.7913 182.643 46.9068C182.934 47.0223 183.247 47.0745 183.56 47.06C183.855 47.0764 184.151 47.0296 184.427 46.9227C184.703 46.8158 184.953 46.6512 185.16 46.44C186.01 45.59 186.05 44.17 186.05 42.92V22.76H192.91Z" fill="#182033"/>
<path d="M219.3 28.55H209.39V34.29H218.83V40.07H209.39V46.66H219.32V52.44H202.52V22.76H219.3V28.55Z" fill="#182033"/>
<path d="M249.39 51.51C247.372 52.5744 245.122 53.124 242.84 53.11C237.37 53.11 233.68 51.24 231.19 48.79C228.226 45.8122 226.562 41.7816 226.562 37.58C226.562 33.3784 228.226 29.3478 231.19 26.37C234.182 23.5501 238.159 22.0138 242.27 22.09C244.732 22.1416 247.156 22.7034 249.39 23.74V31.66C248.51 30.6721 247.432 29.8803 246.226 29.336C245.02 28.7916 243.713 28.5068 242.39 28.5C241.286 28.4686 240.187 28.6575 239.156 29.0559C238.126 29.4542 237.186 30.054 236.39 30.82C235.49 31.7171 234.778 32.7853 234.297 33.9618C233.816 35.1383 233.576 36.3991 233.59 37.67C233.545 38.864 233.747 40.0543 234.184 41.1666C234.62 42.2788 235.281 43.289 236.126 44.1338C236.971 44.9787 237.981 45.64 239.093 46.0764C240.206 46.5128 241.396 46.7149 242.59 46.67C243.875 46.6526 245.143 46.3711 246.314 45.843C247.486 45.3149 248.536 44.5514 249.4 43.6L249.39 51.51Z" fill="#182033"/>
<path d="M268.39 28.55V52.44H261.54V28.55H255.09V22.76H274.84V28.55H268.39Z" fill="#182033"/>
<path d="M288.59 52.44H281.74V22.76H288.59V52.44Z" fill="#182033"/>
<path d="M302.66 22.76L310.18 41.76L317.7 22.76H325.08L312.49 52.44H307.86L295.27 22.76H302.66Z" fill="#182033"/>
<path d="M348.39 28.55H338.47V34.29H347.91V40.07H338.47V46.66H348.39V52.44H331.63V22.76H348.39V28.55Z" fill="#182033"/>
<path d="M131.16 70.96H133.16C134.26 71.0557 135.355 70.7265 136.22 70.04C136.836 69.3795 137.167 68.5027 137.14 67.6C137.158 67.1584 137.086 66.7176 136.928 66.3049C136.77 65.8921 136.529 65.5161 136.22 65.2C135.321 64.4974 134.186 64.1679 133.05 64.28H131.12L131.16 70.96ZM134.16 59.63C136.489 59.4554 138.797 60.1701 140.62 61.63C141.437 62.3914 142.077 63.3242 142.491 64.3614C142.906 65.3987 143.087 66.5148 143.02 67.63C143.076 68.6889 142.917 69.7481 142.555 70.7446C142.192 71.741 141.633 72.6543 140.91 73.43C140.068 74.2003 139.077 74.7908 137.999 75.1656C136.921 75.5404 135.778 75.6916 134.64 75.61H131.16V84.25H125.48V59.63H134.16Z" fill="#182033"/>
<path d="M157.83 70.81H159.12C160.35 70.9147 161.572 70.5302 162.52 69.74C162.825 69.4209 163.063 69.0443 163.221 68.6323C163.379 68.2203 163.453 67.7811 163.44 67.34C163.464 66.861 163.374 66.383 163.175 65.9463C162.977 65.5096 162.677 65.1268 162.3 64.83C161.352 64.2685 160.26 64.0006 159.16 64.06H157.83V70.81ZM160.78 59.63C163.072 59.4967 165.326 60.2646 167.06 61.77C167.773 62.492 168.331 63.3525 168.699 64.2984C169.068 65.2444 169.238 66.2557 169.2 67.27C169.24 68.1905 169.09 69.1094 168.76 69.9696C168.429 70.8297 167.926 71.6127 167.28 72.27C166.314 73.1786 165.134 73.8287 163.85 74.16L171.39 84.26H164.45L157.8 74.54V84.26H152.11V59.63H160.78Z" fill="#182033"/>
<path d="M186.97 66.42C186.245 67.1518 185.677 68.0245 185.302 68.9842C184.927 69.9439 184.753 70.9703 184.79 72C184.757 73.0294 184.94 74.0542 185.328 75.0084C185.715 75.9626 186.299 76.825 187.04 77.54C187.742 78.2091 188.571 78.7308 189.478 79.0743C190.384 79.4178 191.351 79.5762 192.32 79.54C193.327 79.5742 194.33 79.405 195.27 79.0424C196.21 78.6799 197.067 78.1315 197.79 77.43C198.506 76.7102 199.066 75.85 199.435 74.9036C199.803 73.9571 199.972 72.9447 199.93 71.93C199.975 69.8734 199.206 67.8822 197.79 66.39C196.314 65.0224 194.372 64.2679 192.36 64.28C191.365 64.2644 190.377 64.4454 189.452 64.8126C188.527 65.1799 187.683 65.7261 186.97 66.42V66.42ZM201.92 62.65C204.379 65.1086 205.76 68.4431 205.76 71.92C205.76 75.3969 204.379 78.7314 201.92 81.19C200.653 82.3978 199.157 83.3402 197.52 83.9619C195.884 84.5835 194.14 84.8719 192.39 84.81C188.84 84.9051 185.394 83.6056 182.79 81.19C181.562 80.0037 180.588 78.5798 179.928 77.005C179.268 75.4302 178.935 73.7375 178.95 72.03C178.991 68.5464 180.353 65.2082 182.76 62.69C185.412 60.3699 188.816 59.0911 192.34 59.0911C195.864 59.0911 199.268 60.3699 201.92 62.69V62.65Z" fill="#182033"/>
<path d="M223.45 64.43V84.26H217.77V64.43H212.39V59.63H228.79V64.43H223.45Z" fill="#182033"/>
<path d="M243.47 66.42C242.745 67.1518 242.177 68.0245 241.802 68.9842C241.427 69.9439 241.253 70.9703 241.29 72C241.257 73.0294 241.44 74.0542 241.828 75.0084C242.215 75.9626 242.799 76.825 243.54 77.54C244.242 78.2091 245.071 78.7308 245.978 79.0743C246.884 79.4178 247.851 79.5762 248.82 79.54C249.827 79.576 250.831 79.4075 251.771 79.0449C252.711 78.6822 253.568 78.1329 254.29 77.43C255.006 76.7102 255.566 75.85 255.935 74.9036C256.303 73.9571 256.472 72.9447 256.43 71.93C256.48 69.8726 255.71 67.8798 254.29 66.39C252.814 65.0224 250.872 64.2679 248.86 64.28C247.865 64.2644 246.877 64.4454 245.952 64.8126C245.027 65.1799 244.183 65.7261 243.47 66.42V66.42ZM258.47 62.65C260.928 65.1086 262.31 68.4431 262.31 71.92C262.31 75.3969 260.928 78.7314 258.47 81.19C257.202 82.3973 255.707 83.3395 254.07 83.9611C252.434 84.5827 250.689 84.8713 248.94 84.81C245.389 84.9094 241.941 83.6093 239.34 81.19C238.11 80.0052 237.135 78.5815 236.474 77.0064C235.814 75.4313 235.483 73.7378 235.5 72.03C235.542 68.5486 236.9 65.212 239.3 62.69C241.954 60.3691 245.36 59.09 248.885 59.09C252.41 59.09 255.816 60.3691 258.47 62.69V62.65Z" fill="#182033"/>
<path d="M289.85 83.48C288.182 84.3659 286.319 84.823 284.43 84.81C279.88 84.81 276.82 83.26 274.75 81.23C272.29 78.7582 270.908 75.4126 270.908 71.925C270.908 68.4374 272.29 65.0918 274.75 62.62C277.235 60.2808 280.537 59.0067 283.95 59.07C285.991 59.108 288.001 59.5748 289.85 60.44V67.01C289.127 66.1941 288.241 65.5393 287.248 65.0879C286.256 64.6366 285.18 64.3988 284.09 64.39C283.171 64.3606 282.255 64.5153 281.396 64.8451C280.537 65.1748 279.753 65.6729 279.09 66.31C278.343 67.0557 277.753 67.9433 277.355 68.9205C276.956 69.8977 276.758 70.9448 276.77 72C276.729 72.991 276.894 73.9798 277.254 74.9042C277.613 75.8286 278.16 76.6688 278.859 77.3721C279.559 78.0753 280.396 78.6264 281.318 78.9909C282.241 79.3554 283.229 79.5253 284.22 79.49C285.287 79.4784 286.34 79.2459 287.312 78.807C288.285 78.3681 289.156 77.7324 289.87 76.94L289.85 83.48Z" fill="#182033"/>
<path d="M306.81 66.42C306.085 67.1518 305.517 68.0245 305.142 68.9842C304.767 69.9439 304.593 70.9703 304.63 72C304.597 73.0294 304.78 74.0542 305.168 75.0084C305.555 75.9626 306.139 76.825 306.88 77.54C307.582 78.2091 308.411 78.7308 309.318 79.0743C310.224 79.4178 311.191 79.5762 312.16 79.54C313.167 79.5742 314.17 79.405 315.11 79.0424C316.05 78.6799 316.907 78.1315 317.63 77.43C318.346 76.7102 318.906 75.85 319.275 74.9036C319.643 73.9571 319.812 72.9447 319.77 71.93C319.815 69.8734 319.046 67.8822 317.63 66.39C316.154 65.0224 314.212 64.2679 312.2 64.28C311.205 64.2644 310.217 64.4454 309.292 64.8126C308.367 65.1799 307.523 65.7261 306.81 66.42V66.42ZM321.76 62.65C324.219 65.1086 325.6 68.4431 325.6 71.92C325.6 75.3969 324.219 78.7314 321.76 81.19C320.493 82.3978 318.997 83.3402 317.36 83.9619C315.724 84.5835 313.98 84.8719 312.23 84.81C308.68 84.9051 305.234 83.6056 302.63 81.19C301.402 80.0037 300.428 78.5798 299.768 77.005C299.108 75.4302 298.775 73.7375 298.79 72.03C298.831 68.5464 300.193 65.2082 302.6 62.69C305.252 60.3699 308.656 59.0911 312.18 59.0911C315.704 59.0911 319.108 60.3699 321.76 62.69V62.65Z" fill="#182033"/>
<path d="M341.08 59.63V79.46H348.72V84.26H335.39V59.63H341.08Z" fill="#182033"/>
</g>
<defs>
<linearGradient id="paint0_linear" x1="19.17" y1="90.57" x2="56.62" y2="25.71" gradientUnits="userSpaceOnUse">
<stop stop-color="#174E5B"/>
<stop offset="0.07" stop-color="#195A6C"/>
<stop offset="0.21" stop-color="#1E779A"/>
<stop offset="0.4" stop-color="#27A7E3"/>
<stop offset="0.47" stop-color="#2ABAFF"/>
<stop offset="0.7" stop-color="#1DDAF0"/>
<stop offset="1" stop-color="#0EFFE0"/>
</linearGradient>
<linearGradient id="paint1_linear" x1="31450.2" y1="-230354" x2="36775.1" y2="-223913" gradientUnits="userSpaceOnUse">
<stop stop-color="#174E5B"/>
<stop offset="0.07" stop-color="#195A6C"/>
<stop offset="0.21" stop-color="#1E779A"/>
<stop offset="0.4" stop-color="#27A7E3"/>
<stop offset="0.47" stop-color="#2ABAFF"/>
<stop offset="0.7" stop-color="#1DDAF0"/>
<stop offset="1" stop-color="#0EFFE0"/>
</linearGradient>
<clipPath id="clip0">
<rect width="348.72" height="100.02" fill="white"/>
</clipPath>
</defs>
</svg>
